<?xml version="1.0" encoding="UTF-8"?>
<svg width="51px" height="40px" viewBox="0 0 51 40" version="1.1" xmlns="http://www.w3.org/2000/svg" xmlns:xlink="http://www.w3.org/1999/xlink">
    <title>email</title>
    <g id="Page-1" stroke="none" stroke-width="1" fill="none" fill-rule="evenodd">
        <g id="Icon-Set" transform="translate(-152.000000, -149.000000)" fill="#FFFFFF">
            <g id="email" transform="translate(152.000000, 149.000000)">
                <path d="M47.2826667,0.457142857 L4.216,0.457142857 C2.33823185,0.457142857 0.816,1.99216657 0.816,3.88571429 L0.816,35.8857143 C0.816,37.779262 2.33823185,39.3142857 4.216,39.3142857 L47.2826667,39.3142857 C49.1604348,39.3142857 50.6826667,37.779262 50.6826667,35.8857143 L50.6826667,3.88571429 C50.6826667,1.99216657 49.1604348,0.457142857 47.2826667,0.457142857 Z M47.2826667,33.4628571 L38.284,24.3885714 C37.6141779,23.7591797 36.570378,23.7777511 35.9229906,24.4305787 C35.2756032,25.0834063 35.2571866,26.1359777 35.8813333,26.8114286 L44.88,35.8857143 L6.61866667,35.8857143 L15.6173333,26.8114286 C16.2414801,26.1359777 16.2230635,25.0834063 15.5756761,24.4305787 C14.9282887,23.7777511 13.8844888,23.7591797 13.2146667,24.3885714 L4.216,33.4628571 L4.216,11.4628571 L24.616,26.9714286 C25.2204444,27.4285714 26.0515556,27.4285714 26.656,26.9714286 L47.26,11.4514286 L47.2826667,33.4628571 Z M47.2826667,3.88571429 L47.2826667,7.17714286 L25.67,23.4628571 L4.216,7.17714286 L4.216,3.88571429 L47.2826667,3.88571429 Z" id="Shape"></path>
            </g>
        </g>
    </g>
</svg>