<?xml version="1.0" encoding="UTF-8"?>
<svg width="42px" height="40px" viewBox="0 0 42 40" version="1.1" xmlns="http://www.w3.org/2000/svg" xmlns:xlink="http://www.w3.org/1999/xlink">
    <title>github</title>
    <g id="Page-1" stroke="none" stroke-width="1" fill="none" fill-rule="evenodd">
        <g id="Icon-Set" transform="translate(-400.000000, -149.000000)" fill="#FFFFFF" fill-rule="nonzero">
            <g id="github" transform="translate(400.111111, 149.000000)">
                <path d="M20.685675,0.774079491 C9.65837329,0.774079491 0.715395866,9.71583084 0.715395866,20.7468108 C0.715395866,29.5708591 6.43747917,37.0560356 14.3738506,39.6969971 C15.3731002,39.8809081 15.7372439,39.2641933 15.7372439,38.7345297 C15.7372439,38.2612655 15.7200789,37.0045405 15.7102703,35.3383072 C10.1549329,36.5447631 8.982807,32.6605634 8.982807,32.6605634 C8.0742868,30.3530938 6.7648407,29.7388312 6.7648407,29.7388312 C4.95147854,28.5004973 6.90216089,28.5250188 6.90216089,28.5250188 C8.90679046,28.6660172 9.96121335,30.5835955 9.96121335,30.5835955 C11.7426976,33.6352916 14.6362302,32.753745 15.7740261,32.2424725 C15.9554849,30.9526436 16.4716617,30.0723231 17.0417857,29.5733113 C12.6070792,29.0693952 7.94432305,27.355345 7.94432305,19.7021965 C7.94432305,17.5222385 8.72287949,15.7383021 10.0004477,14.3430308 C9.79446741,13.8378887 9.10909253,11.8062855 10.1966194,9.05742957 C10.1966194,9.05742957 11.8726614,8.52040954 15.688201,11.1049717 C17.28087,10.6611332 18.9900159,10.4404401 20.6881272,10.4318576 C22.3850124,10.4404401 24.0929323,10.6611332 25.6880534,11.1049717 C29.5011409,8.52040954 31.1747307,9.05742957 31.1747307,9.05742957 C32.2647097,11.8062855 31.5793348,13.8378887 31.3745806,14.3430308 C32.654601,15.7383021 33.427027,17.5222385 33.427027,19.7021965 C33.427027,27.3749622 28.7569145,29.0632649 24.3087211,29.5573723 C25.0247479,30.1740871 25.663532,31.3928038 25.663532,33.256435 C25.663532,35.9255962 25.6390105,38.0798067 25.6390105,38.7345297 C25.6390105,39.2690976 25.999476,39.8907167 27.0122124,39.6957711 C34.9424534,37.0486792 40.6596324,29.568407 40.6596324,20.7468108 C40.6596324,9.71583084 31.716655,0.774079491 20.685675,0.774079491"></path>
            </g>
        </g>
    </g>
</svg>