<?xml version="1.0" encoding="UTF-8"?>
<svg width="42px" height="40px" viewBox="0 0 42 40" version="1.1" xmlns="http://www.w3.org/2000/svg" xmlns:xlink="http://www.w3.org/1999/xlink">
    <title>linkedin</title>
    <g id="Page-1" stroke="none" stroke-width="1" fill="none" fill-rule="evenodd">
        <g id="Icon-Set" transform="translate(-319.000000, -149.000000)" fill="#FFFFFF" fill-rule="nonzero">
            <g id="linkedin" transform="translate(319.000000, 149.000000)">
                <path d="M37,0 L3,0 C1.33333333,0 0,1.33333333 0,2.88888889 L0,37.1111111 C0,38.6666667 1.33333333,40 3,40 L37.1111111,40 C38.7777778,40 40.1111111,38.6666667 40.1111111,37.1111111 L40.1111111,2.88888889 C40,1.33333333 38.6666667,0 37,0 Z M11.8888889,34.1111111 L5.88888889,34.1111111 L5.88888889,15 L11.7777778,15 L11.7777778,34.1111111 L11.8888889,34.1111111 Z M8.88888889,12.3333333 C7,12.3333333 5.44444444,10.7777778 5.44444444,8.88888889 C5.44444444,7 7,5.55555556 8.88888889,5.55555556 C10.7777778,5.55555556 12.3333333,7.11111111 12.3333333,9 C12.3333333,10.8888889 10.7777778,12.3333333 8.88888889,12.3333333 Z M34.1111111,34.1111111 L28.2222222,34.1111111 L28.2222222,24.7777778 C28.2222222,22.5555556 28.2222222,19.6666667 25.1111111,19.6666667 C22,19.6666667 21.5555556,22.1111111 21.5555556,24.5555556 L21.5555556,34 L15.5555556,34 L15.5555556,15 L21.2222222,15 L21.2222222,17.5555556 L21.3333333,17.5555556 C22.1111111,16 24.1111111,14.4444444 27,14.4444444 C33,14.4444444 34.1111111,18.4444444 34.1111111,23.5555556 L34.1111111,34.1111111 Z" id="path2"></path>
            </g>
        </g>
    </g>
</svg>