<?xml version="1.0" encoding="UTF-8"?>
<svg width="36px" height="40px" viewBox="0 0 36 40" version="1.1" xmlns="http://www.w3.org/2000/svg" xmlns:xlink="http://www.w3.org/1999/xlink">
    <title>resume</title>
    <g id="Page-1" stroke="none" stroke-width="1" fill="none" fill-rule="evenodd">
        <g id="Icon-Set" transform="translate(-243.000000, -149.000000)" fill="#FFFFFF">
            <g id="resume" transform="translate(243.000000, 149.000000)">
                <path d="M32.9723077,0.372093023 L11.7415385,0.372093023 C10.786226,0.37537478 9.90005168,0.874635533 9.39692308,1.69302326 L2.01230769,9.13488372 C1.17483883,9.63970401 0.662849369,10.5514661 0.664615385,11.5348837 L0.664615385,36.6511628 C0.664615385,38.1924226 1.90444223,39.4418605 3.43384615,39.4418605 L32.9723077,39.4418605 C34.5017116,39.4418605 35.7415385,38.1924226 35.7415385,36.6511628 L35.7415385,3.1627907 C35.7415385,1.62153093 34.5017116,0.372093023 32.9723077,0.372093023 Z M8.97230769,6.06511628 L8.97230769,8.74418605 L6.31384615,8.74418605 L8.97230769,6.06511628 Z M32.9723077,36.6511628 L3.43384615,36.6511628 L3.43384615,11.627907 L3.48923077,11.627907 L3.54461538,11.572093 L11.7415385,11.572093 L11.7415385,3.31162791 L11.7969231,3.25581395 L11.7969231,3.2 L32.9353846,3.2 L32.9723077,36.6511628 Z" id="Shape"></path>
                <path d="M27.4338462,21.7674419 L8.97230769,21.7674419 C8.20760573,21.7674419 7.58769231,22.3921608 7.58769231,23.1627907 C7.58769231,23.9334206 8.20760573,24.5581395 8.97230769,24.5581395 L27.4338462,24.5581395 C28.1985481,24.5581395 28.8184615,23.9334206 28.8184615,23.1627907 C28.8184615,22.3921608 28.1985481,21.7674419 27.4338462,21.7674419 Z" id="Shape"></path>
                <path d="M27.4338462,15.255814 L8.97230769,15.255814 C8.20760573,15.255814 7.58769231,15.8805329 7.58769231,16.6511628 C7.58769231,17.4217927 8.20760573,18.0465116 8.97230769,18.0465116 L27.4338462,18.0465116 C28.1985481,18.0465116 28.8184615,17.4217927 28.8184615,16.6511628 C28.8184615,15.8805329 28.1985481,15.255814 27.4338462,15.255814 Z" id="Shape-Copy"></path>
                <path d="M24.6646154,28.2790698 L8.97230769,28.2790698 C8.20760573,28.2790698 7.58769231,28.9037887 7.58769231,29.6744186 C7.58769231,30.4450485 8.20760573,31.0697674 8.97230769,31.0697674 L24.6646154,31.0697674 C25.4293173,31.0697674 26.0492308,30.4450485 26.0492308,29.6744186 C26.0492308,28.9037887 25.4293173,28.2790698 24.6646154,28.2790698 Z" id="Shape"></path>
            </g>
        </g>
    </g>
</svg>